<mxfile host="app.diagrams.net" modified="2024-04-21T16:48:36.713Z" agent="Mozilla/5.0 (Windows NT 10.0; Win64; x64) AppleWebKit/537.36 (KHTML, like Gecko) Chrome/123.0.0.0 Safari/537.36 OPR/109.0.0.0" version="24.2.7" etag="1-J3L1fjTIChn8_3KvcV" type="github">
  <diagram name="PÃ¡gina-1" id="JUda1eNYr1palm8Z5wgj">
    <mxGraphModel>
      <root>
        <mxCell id="0" />
        <mxCell id="1" parent="0" />
      </root>
    </mxGraphModel>
  </diagram>
</mxfile>
